<?xml version="1.0" encoding="UTF-8"?>
<svg width="50px" height="50px" viewBox="0 0 50 50" version="1.1" xmlns="http://www.w3.org/2000/svg" xmlns:xlink="http://www.w3.org/1999/xlink">
    <title>28AF83F2-DE6E-4834-A678-BCF9B44E2A2D@1x</title>
    <g id="Homepage" stroke="none" stroke-width="1" fill="none" fill-rule="evenodd">
        <g id="Thuso-web-home-v2" transform="translate(-925.000000, -5912.000000)" fill="#FFFFFF">
            <g id="footer" transform="translate(0.000000, 5595.000000)">
                <g id="social-links" transform="translate(860.000000, 282.000000)">
                    <g id="medium-icon" transform="translate(65.000000, 35.000000)">
                        <rect id="Rectangle-Copy-8" opacity="0.200000003" x="0" y="0" width="50" height="50"></rect>
                        <g id="Medium-Symbol-White-RGB" transform="translate(9.000000, 15.000000)">
                            <path d="M9.12391358,0.875348475 C14.0287571,0.875348475 18.0049771,4.87878508 18.0049771,9.8173325 C18.0049771,14.7558497 14.0287571,18.7592864 9.12391358,18.7592864 C4.21903992,18.7592864 0.242850102,14.7558497 0.242850102,9.8173325 C0.242850102,4.87878508 4.21903992,0.875348475 9.12391358,0.875348475 Z M23.3071468,1.3999773 C25.7596591,1.3999773 27.7477993,5.1685424 27.7477993,9.8173325 C27.7477993,14.4660924 25.7596591,18.2346575 23.3071468,18.2346575 C20.8547553,18.2346575 18.8666453,14.4660924 18.8666453,9.8173325 C18.8666453,5.1685424 20.8547553,1.3999773 23.3071468,1.3999773 Z M30.1710431,2.2757366 C31.0337071,2.2757366 31.73283,5.65219544 31.73283,9.8173325 C31.73283,13.9824394 31.0337071,17.3588982 30.1710431,17.3588982 C29.3086809,17.3588982 28.6092563,13.9824394 28.6092563,9.8173325 C28.6092563,5.65219544 29.3086809,2.2757366 30.1710431,2.2757366 Z" id="Combined-Shape"></path>
                        </g>
                    </g>
                </g>
            </g>
        </g>
    </g>
</svg>