<?xml version="1.0" encoding="UTF-8"?>
<svg width="204px" height="82px" viewBox="0 0 204 82" version="1.1" xmlns="http://www.w3.org/2000/svg" xmlns:xlink="http://www.w3.org/1999/xlink">
    <title>26E6D42A-D019-47FC-9420-72532399155A</title>
    <g id="Homepage" stroke="none" stroke-width="1" fill="none" fill-rule="evenodd">
        <g id="Thuso-web-home-v2" transform="translate(-60.000000, -16.000000)" fill="#D2AA8D">
            <g id="thuso-logo-gold" transform="translate(60.000000, 16.000000)">
                <path d="M196.64592,44.9488041 C198.594284,44.9488041 199.56956,43.4339138 199.56956,40.4046494 C199.56956,38.9181471 199.348155,37.7821085 198.905891,36.9970495 C198.463628,36.2109582 197.709757,35.8181706 196.64592,35.8181706 C194.681156,35.8181706 193.699867,37.3469969 193.699867,40.4046494 C193.699867,41.9200558 193.920725,43.0555783 194.363535,43.8127654 C194.805252,44.5699525 195.565682,44.9488041 196.64592,44.9488041 L196.64592,44.9488041 Z M196.634976,48.2097446 C194.47406,48.2097446 192.79259,47.5188616 191.590564,46.1370956 C190.387488,44.7563523 189.786738,42.84479 189.786738,40.4044542 C189.786738,37.992756 190.376986,36.0811937 191.558006,34.6713014 C192.739026,33.2619206 194.431525,32.5572301 196.634976,32.5572301 C198.852605,32.5572301 200.548779,33.2516928 201.722448,34.6401069 C202.896117,36.0285209 203.482688,37.9503109 203.482688,40.4044542 C203.482688,42.84479 202.878262,44.7563523 201.668359,46.1370956 C200.458457,47.5188616 198.780662,48.2097446 196.634976,48.2097446 L196.634976,48.2097446 Z M169.788906,47.6206275 L169.788906,44.3595165 C171.136134,44.7246464 172.468945,44.9066999 173.786804,44.9066999 C175.309711,44.9066999 176.071164,44.4577027 176.071164,43.5602196 C176.071164,43.4200997 176.045533,43.2866279 175.994271,43.1603154 C175.943543,43.034003 175.854903,42.9153613 175.73102,42.8028563 C175.606069,42.6908627 175.492331,42.5957449 175.390341,42.5185255 C175.287818,42.4418176 175.123352,42.3507908 174.896411,42.2454452 C174.668936,42.1400996 174.48952,42.0593005 174.357627,42.003048 C174.226268,41.9473069 174.010541,41.8593485 173.710445,41.7407068 C173.409815,41.6210424 173.186078,41.5341067 173.040302,41.4773428 C171.970743,41.0564718 171.12492,40.5343463 170.502835,39.9104549 C169.880216,39.2860522 169.568907,38.420275 169.568907,37.3121007 C169.568907,35.8674342 170.074051,34.7137465 171.084872,33.8515491 C172.095694,32.9888402 173.530494,32.5572301 175.390341,32.5572301 C176.07864,32.5572301 176.741307,32.6027435 177.378878,32.6942817 C178.015914,32.7853084 178.473,32.8799149 178.751203,32.9781011 L179.191201,33.1044135 L179.191201,36.3650131 C177.902177,36.0285209 176.730094,35.8602748 175.67602,35.8602748 C174.226268,35.8602748 173.501125,36.2744977 173.501125,37.1014095 C173.501125,37.5084731 173.706173,37.8449653 174.116269,38.1113976 C174.526364,38.37783 175.163401,38.6585811 176.027378,38.9531396 C176.613152,39.1633194 177.100141,39.3704309 177.488877,39.5734513 C177.876012,39.7769831 178.282903,40.0469951 178.707416,40.3834874 C179.131929,40.720491 179.454453,41.1408506 179.673918,41.6461003 C179.893917,42.1508387 180.003916,42.7261484 180.003916,43.3710066 C180.003916,44.7737395 179.46887,45.9304955 178.399845,46.841786 C177.33082,47.7540993 175.742233,48.2097446 173.633018,48.2097446 C172.944186,48.2097446 172.282052,48.1601401 171.645016,48.0619539 C171.007979,47.9642791 170.535408,47.8660929 170.22837,47.7679068 L169.788906,47.6206275 Z M152.884265,48.2097446 C151.086319,48.2097446 149.613002,47.677605 148.464835,46.6122833 C147.316147,45.5474829 146.742323,44.0141285 146.742323,42.0132627 L146.742323,32.5572301 L150.551514,32.5572301 L150.551514,42.0132627 C150.551514,43.8999869 151.328751,44.843349 152.884265,44.843349 C154.496486,44.843349 155.30962,43.8999869 155.324187,42.0132627 L155.324187,32.5572301 L159.133897,32.5572301 L159.133897,42.0132627 C159.133897,44.0000563 158.555912,45.5292411 157.400461,46.6013382 C156.24449,47.6734354 154.738918,48.2097446 152.884265,48.2097446 L152.884265,48.2097446 Z M123.263552,47.5575565 L123.263552,32.5572301 L127.086062,32.5572301 L127.086062,38.2974419 L131.811211,38.2974419 L131.811211,32.5572301 L135.655125,32.5572301 L135.655125,47.5575565 L131.811211,47.5575565 L131.811211,41.6701728 L127.086062,41.6701728 L127.086062,47.5575565 L123.263552,47.5575565 Z M105.647717,47.5575565 L105.647717,35.929961 L101.741344,35.929961 L101.741344,32.5572301 L113.48073,32.5572301 L113.48073,35.929961 L109.574891,35.929961 L109.574891,47.5575565 L105.647717,47.5575565 Z" id="Thuso"></path>
                <path d="M69.2161253,48.250142 L69.2161253,50.6294464 L63.2424195,54.0642906 C62.9028267,54.2596001 62.785576,54.6936214 62.9809939,55.033026 C63.1130095,55.2613212 63.3518535,55.3889234 63.5967772,55.3889234 C63.7175019,55.3889234 63.8390953,55.3585419 63.9511348,55.2943068 L69.2161253,52.2657065 L69.2161253,53.8550923 L63.243288,57.2899365 C62.9028267,57.485246 62.785576,57.9192673 62.9809939,58.2586719 C63.1130095,58.4869671 63.3518535,58.6145693 63.5967772,58.6145693 C63.7175019,58.6145693 63.8390953,58.5841878 63.9502663,58.5199527 L69.2161253,55.4913524 L69.2161253,57.0807382 L63.2424195,60.5164504 C62.9028267,60.71176 62.785576,61.1449132 62.9809939,61.4843178 C63.1130095,61.712613 63.3518535,61.8402152 63.5967772,61.8402152 C63.7175019,61.8402152 63.8390953,61.8098337 63.9511348,61.7455986 L69.2161253,58.7169983 L69.2161253,60.3107243 L62.233195,64.328893 L52.1313962,65.5354721 L46.3696102,68.8609429 C46.2540965,68.8939285 46.1490052,68.9529554 46.0656269,69.0362875 L43.3506219,70.6022361 L38.730076,67.9356096 L38.730076,61.3792847 L48.4992302,55.7387445 L51.2307372,46.7675254 L53.4758708,45.4715379 L53.4758708,50.3525409 C53.4750023,50.355145 53.4741338,50.3577491 53.4732653,50.3612213 C53.3742536,50.7396878 53.6018068,51.1268348 53.9813516,51.2257916 L60.6802747,52.9679529 L66.2579337,49.7501194 C66.2666189,49.7449111 66.2744356,49.7379668 66.2831209,49.7327585 C66.3057025,49.7188699 66.326547,49.702377 66.3482601,49.6858842 C66.3604195,49.6754677 66.3743158,49.6659193 66.3856067,49.6546347 C66.4142679,49.6285934 66.4394551,49.6008161 66.4637738,49.5704346 C66.4655108,49.5678305 66.4689849,49.5643583 66.4715905,49.5608861 C66.563654,49.4410963 66.620108,49.293529 66.620108,49.1312051 L66.620108,46.6824572 L69.2161253,48.250142 Z M45.7703288,73.8435068 L43.7084537,75.032725 L37.7451701,71.58052 C37.4055774,71.3834744 36.9721841,71.4997921 36.7750292,71.8383287 C36.5787429,72.1777333 36.6942565,72.6117545 37.0329807,72.8079321 L42.2901545,75.8512891 L40.9135445,76.645548 L34.9493924,73.193343 C34.6106682,72.9971654 34.1764064,73.112615 33.98012,73.4511516 C33.7838337,73.7905562 33.8993473,74.2245775 34.2380716,74.4207551 L39.4952453,77.464112 L38.1177668,78.2583709 L32.1544833,74.8061659 C31.8148905,74.6099883 31.3814972,74.725438 31.1843423,75.0648426 C30.988056,75.4033792 31.1044382,75.8374004 31.4431624,76.033578 L36.7003362,79.076935 L35.3193835,79.873798 L28.3468755,75.8391365 L22.2498394,67.698634 L16.4950015,64.3783715 C16.4055436,64.2906992 16.2978467,64.2273321 16.180596,64.1960825 L13.4699336,62.632738 L13.4699336,57.178827 L17.5172539,53.0755902 L28.9227067,59.6570884 L38.0613128,57.5347245 L40.307315,58.8307119 L37.8242058,60.2638501 C37.5289077,60.3489182 37.3109083,60.6188794 37.3109083,60.9426593 L37.3109083,68.7550417 L42.9910531,72.0336382 C43.0492442,72.0666238 43.1091723,72.090061 43.1708375,72.1056857 C43.2307656,72.1213105 43.2915623,72.1299909 43.3532275,72.1299909 C43.4739523,72.1299909 43.5955456,72.0996094 43.7075851,72.0345063 L45.830257,70.8096983 L45.7703288,73.8435068 Z M11.87185,66.3444877 L9.80997484,65.1552695 L9.8195286,58.2673523 C9.82039713,57.8749971 9.50338599,57.5572936 9.11168181,57.5564255 L9.10994477,57.5564255 C8.71910912,57.5564255 8.40122945,57.873261 8.40122945,58.2647482 L8.39167569,64.3367054 L7.01506568,63.5424465 L7.02461944,56.6545294 C7.02548796,56.2621742 6.70847682,55.9444706 6.31677265,55.9436026 L6.3150356,55.9436026 C5.92333142,55.9436026 5.60632028,56.2604381 5.60545176,56.6519252 L5.59676652,62.7238825 L4.22015651,61.9296236 L4.22971027,55.0408384 C4.23057879,54.6493512 3.91356765,54.3316477 3.52099495,54.3307796 L3.52012643,54.3307796 C3.12842226,54.3307796 2.81054259,54.6476151 2.81054259,55.0391023 L2.80185736,61.1110595 L1.42090472,60.3141965 L1.43045848,52.2613663 L5.43522112,42.9142848 L5.43522112,36.2789679 C5.4673565,36.157442 5.46822502,36.0324439 5.43522112,35.9152581 L5.43522112,32.787701 L10.0592411,30.1202065 L15.7376489,33.3979349 L15.741123,44.6685986 L22.1490906,51.5183219 L22.1490906,54.1102968 L17.9193803,51.6693613 C17.9176433,51.6676252 17.9167748,51.6650211 17.9141692,51.662417 C17.6353731,51.3881156 17.1854778,51.3907197 16.9101558,51.6702294 L12.0516344,56.5972386 L12.0507659,63.0346417 C12.0507659,63.0441902 12.0533715,63.0528706 12.0533715,63.062419 C12.05424,63.0910645 12.0577141,63.1188418 12.0620567,63.1474872 C12.0646623,63.1622439 12.0663993,63.1770007 12.0698734,63.1917574 C12.0776901,63.2299513 12.0898495,63.2672771 12.1046144,63.3046029 C12.1054829,63.307207 12.1063514,63.3098112 12.1080885,63.3124153 C12.165411,63.4521701 12.2652913,63.5754322 12.4059921,63.6570282 L14.5277954,64.8809681 L11.87185,66.3444877 Z M1.4200362,33.2599161 L1.4200362,30.8806117 L7.39287347,27.4457675 C7.73333475,27.250458 7.85058545,26.8173048 7.65516762,26.4779002 C7.45974979,26.1376275 7.02375091,26.0213098 6.68589521,26.2166194 L1.4200362,29.2443516 L1.4200362,27.6549658 L7.39287347,24.2201216 C7.73333475,24.0248121 7.85058545,23.5907908 7.65516762,23.2513862 C7.45974979,22.9119816 7.02375091,22.7956639 6.68589521,22.9909735 L1.4200362,26.0187057 L1.4200362,24.4293199 L7.393742,20.9944757 C7.73333475,20.7991662 7.85058545,20.3651449 7.65516762,20.0257403 C7.45974979,19.6854676 7.02461944,19.56915 6.68502668,19.7644595 L1.4200362,22.7930598 L1.4200362,21.1993338 L8.4029665,17.1811651 L18.5047653,15.974586 L24.2578661,12.6543235 C24.3794594,12.6213378 24.4888934,12.5588388 24.5757457,12.4711665 L27.2846711,10.90869 L32.0103084,13.6360795 L33.5415156,19.1898154 L22.1360628,25.7713136 L19.4062929,34.7425327 L17.1576851,36.0402563 L17.1568166,33.1843965 C17.2375893,32.8823177 17.1125219,32.5524615 16.8285146,32.3884015 L10.0592411,28.4830783 L4.41123172,31.7408418 C4.17846737,31.8571595 4.01692197,32.0950031 4.01692197,32.3736448 L4.01692197,34.8276009 L1.4200362,33.2599161 Z M24.8667012,7.66915542 L26.9285764,6.47906917 L32.8918599,9.9321422 C33.0038994,9.99724539 33.1263613,10.0276269 33.2470861,10.0276269 C33.4920097,10.0276269 33.7299852,9.90089267 33.8611323,9.67346554 C34.0582872,9.33492897 33.9427735,8.90090772 33.6040493,8.70473012 L28.3468755,5.66137314 L29.7234855,4.86624621 L35.6876376,8.31931925 C35.7996771,8.38442244 35.922139,8.41480392 36.0428637,8.41480392 C36.2869189,8.41480392 36.5257629,8.28806972 36.65691,8.06064259 C36.8531963,7.72210601 36.7376827,7.28808477 36.3989585,7.09190717 L31.1417847,4.04855019 L32.5192632,3.25342326 L38.4825467,6.7064963 C38.5945863,6.77159949 38.7170481,6.80198097 38.8377729,6.80198097 C39.0826966,6.80198097 39.3206721,6.67524677 39.4518192,6.44868768 C39.648974,6.10928306 39.5325919,5.67526182 39.1938676,5.47908421 L33.9366939,2.43485919 L35.3176465,1.63886423 L42.2901545,5.67352573 L48.3871907,13.8140282 L54.161136,17.1455753 C54.2401717,17.2176228 54.3331037,17.2723095 54.4329839,17.302691 L57.1662279,18.8799242 L57.1662279,24.207101 L51.480872,27.4874336 L41.7143233,21.8555739 L32.5757173,23.9779378 L30.3297151,22.6819503 L34.5594253,20.2418829 C34.5620309,20.2410148 34.5646365,20.2410148 34.567242,20.2401468 C34.9459184,20.1359817 35.1673919,19.7453626 35.063169,19.3677641 L33.2236359,12.6977256 L27.6459769,9.47902402 C27.6364232,9.47381576 27.6260009,9.4703436 27.6164471,9.46600338 C27.594734,9.45385079 27.5721524,9.44430232 27.5487023,9.43475385 C27.5313318,9.42867756 27.5148298,9.42086517 27.4974594,9.41565692 C27.4627184,9.40524041 27.4279775,9.39742803 27.392368,9.39221977 C27.3854198,9.39135173 27.3802087,9.38961564 27.3732605,9.3887476 C27.2238744,9.36965067 27.0684087,9.3948239 26.9285764,9.47555185 L24.806773,10.6994918 L24.8667012,7.66915542 Z M41.7264826,58.0112798 L38.2853919,56.0260666 L29.1467858,58.1484305 L23.5682583,54.9288609 L23.5682583,50.9584345 L17.1602907,44.1087112 L17.1585536,37.6782524 L20.6013814,35.6913032 L23.3311513,26.720084 L28.9096789,23.5013824 L32.3516382,25.4865956 L41.4902442,23.3642317 L47.0679032,26.5811972 L47.0679032,30.5464153 L53.4758708,37.3952706 L53.4758708,43.8335418 L50.0356486,45.8187549 L47.3041416,54.7899741 L41.7264826,58.0112798 Z M58.76518,15.1603621 L60.8261866,16.3495803 L60.8166329,23.2374975 C60.8157644,23.6289847 61.1327755,23.9475563 61.5253482,23.9475563 L61.5262167,23.9475563 C61.9179209,23.9475563 62.234932,23.6307208 62.2358006,23.2401017 L62.2444858,17.1681444 L63.6219643,17.9624033 L63.6115421,24.8503205 C63.6106735,25.2418076 63.9285532,25.5603792 64.3202574,25.5603792 L64.3211259,25.5603792 C64.7128301,25.5603792 65.0298412,25.2435437 65.0307097,24.8529246 L65.039395,18.7809674 L66.4168735,19.5752263 L66.4064512,26.4631434 C66.4064512,26.8546306 66.7234624,27.1732022 67.1151665,27.1732022 L67.1160351,27.1732022 C67.5077392,27.1732022 67.8247504,26.8563667 67.8256189,26.4657476 L67.8351727,20.3937903 L69.2161253,21.1906533 L69.205703,29.2434835 L65.2009404,38.5905651 L65.2009404,45.2310902 C65.168805,45.3526161 65.168805,45.4776142 65.2009404,45.5948 L65.2009404,48.7223571 L60.4744346,51.4488785 L54.895907,49.9983795 L54.895907,36.8353832 L48.4870709,29.9865279 L48.4870709,27.3988932 L50.9806023,28.8372396 C51.1126179,28.9596336 51.2845856,29.027341 51.4617644,29.027341 C51.5816207,29.027341 51.7040826,28.9969595 51.8161221,28.9327243 L58.5853956,25.0265331 L58.5862641,18.4702082 C58.5862641,18.4623958 58.5836585,18.4554514 58.5836585,18.4485071 C58.58279,18.4215978 58.5793159,18.3955565 58.5758418,18.3686472 C58.5723677,18.3486822 58.5697622,18.3278492 58.5654195,18.3078842 C58.5593399,18.2844471 58.5515232,18.2610099 58.5437064,18.2384408 C58.5367583,18.2176078 58.5298101,18.1976428 58.5211248,18.1776778 C58.5107025,18.1559768 58.4985432,18.1351438 58.4863839,18.1134427 C58.4759616,18.0960818 58.4664078,18.077853 58.45338,18.0604921 C58.4394836,18.0405271 58.4229817,18.0214302 58.4056112,18.0023333 C58.3925833,17.9875765 58.3786869,17.9710837 58.363922,17.957195 C58.3465516,17.9407022 58.3274441,17.9259455 58.3083365,17.9111888 C58.2900975,17.8973001 58.2718585,17.8834114 58.2518825,17.8712588 C58.2449343,17.8660506 58.2388546,17.8599743 58.2310379,17.8556341 L56.1014179,16.6273539 L58.76518,15.1603621 Z M66.620108,38.8813593 L70.6248707,29.5351458 L70.6361615,20.3720893 L58.7808134,13.5310464 L54.6657483,15.7983734 L49.3495149,12.7307112 L43.2524787,4.59107674 L35.3193835,-1.42108547e-13 L23.4640354,6.84104288 L23.3711034,11.5284723 L18.0470533,14.6004747 L7.94612305,15.8079218 L0.000868523669,20.3790336 L0.000868523669,34.0602513 L4.01692197,36.484694 L4.01692197,42.6234905 L0.0112908077,51.969704 L-3.55271368e-14,61.1327606 L11.8553481,67.9729354 L15.9643336,65.7099487 L21.2875151,68.781951 L27.3836828,76.9215855 L35.3176465,81.5126622 L47.1729946,74.6716193 L47.2667951,69.9815858 L52.5891082,66.9095834 L62.6900384,65.7030043 L70.635293,61.1310245 L70.635293,47.4498068 L66.620108,45.0253641 L66.620108,38.8813593 Z" id="Icon"></path>
            </g>
        </g>
    </g>
</svg>