<?xml version="1.0" encoding="UTF-8"?>
<svg width="92px" height="14px" viewBox="0 0 92 14" version="1.1" xmlns="http://www.w3.org/2000/svg" xmlns:xlink="http://www.w3.org/1999/xlink">
    <title>21CCAA6D-CB0C-4CFD-BCFA-6AA03137603A</title>
    <g id="Homepage" stroke="none" stroke-width="1" fill="none" fill-rule="evenodd">
        <g id="Thuso-mobile-hp" transform="translate(-30.000000, -30.000000)" fill="#D2AA8D">
            <g id="Thuso-Logo-mobile" transform="translate(30.000000, 30.000000)">
                <path d="M85.17018,11.0833333 C86.9128455,11.0833333 87.7851562,9.72837761 87.7851562,7.01892783 C87.7851562,5.68936311 87.5871261,4.67326173 87.1915547,3.97108536 C86.7959833,3.26798568 86.1217028,2.91666667 85.17018,2.91666667 C83.4128455,2.91666667 82.5351562,4.28408705 82.5351562,7.01892783 C82.5351562,8.3743452 82.7326975,9.38998493 83.1287578,10.067232 C83.5238402,10.744479 84.2039883,11.0833333 85.17018,11.0833333 L85.17018,11.0833333 Z M85.1603911,14 C83.2276144,14 81.7236651,13.382057 80.6485434,12.1461709 C79.5724823,10.9111997 79.0351563,9.2014506 79.0351563,7.01875327 C79.0351563,4.86167015 79.5630885,3.15192107 80.6194226,1.8908782 C81.6757567,0.630292734 83.1895694,0 85.1603911,0 C87.1438944,0 88.660995,0.621144799 89.7107534,1.862977 C90.7605119,3.1048092 91.2851562,4.82370622 91.2851562,7.01875327 C91.2851562,9.2014506 90.7445424,10.9111997 89.6623753,12.1461709 C88.5802082,13.382057 87.0795468,14 85.1603911,14 L85.1603911,14 Z M61.1485957,13.4730789 L61.1485957,10.5562598 C62.3535901,10.8828411 63.5456891,11.0456743 64.7244153,11.0456743 C66.0865413,11.0456743 66.7676043,10.64408 66.7676043,9.84134867 C66.7676043,9.71602196 66.7446793,9.5966414 66.6988294,9.4836644 C66.653457,9.3706874 66.5741748,9.26457135 66.4633707,9.16394407 C66.3516114,9.06377418 66.2498818,8.97869838 66.1586595,8.90963147 C66.0669595,8.84102196 65.9198576,8.75960533 65.716876,8.6653816 C65.5134167,8.57115787 65.3529419,8.49888918 65.2349737,8.44857554 C65.1174832,8.39871929 64.9245313,8.32004705 64.6561179,8.213931 C64.387227,8.10690016 64.187111,8.02914271 64.0567252,7.97837167 C63.1000848,7.60193413 62.3435604,7.13493204 61.787152,6.576908 C61.2302659,6.01842656 60.9518229,5.24405384 60.9518229,4.25287507 C60.9518229,2.96072922 61.4036361,1.92884213 62.3077401,1.1576712 C63.2118441,0.386042865 64.4951655,0 66.1586595,0 C66.7742908,0 67.3669971,0.0407083116 67.937256,0.122582331 C68.5070373,0.203998955 68.9158662,0.288617355 69.1646978,0.376437533 L69.5582433,0.489414532 L69.5582433,3.40577627 C68.4053077,3.1048092 67.3569674,2.95432567 66.4141775,2.95432567 C65.1174832,2.95432567 64.4688973,3.32481704 64.4688973,4.0644276 C64.4688973,4.42851542 64.6522971,4.72948249 65.0190968,4.9677862 C65.3858965,5.20608991 65.9556779,5.45720073 66.7284408,5.72066127 C67.2523722,5.90865133 67.6879468,6.09389702 68.0356424,6.27548353 C68.3819051,6.45752744 68.7458392,6.69903293 69.1255342,7 C69.5052293,7.30142446 69.7937019,7.6774046 69.9899971,8.1293126 C70.1867699,8.5807632 70.2851562,9.09533455 70.2851562,9.67211187 C70.2851562,10.9267512 69.8065972,11.9613826 68.8504345,12.7764637 C67.8942717,13.5924595 66.4734004,14 64.5868654,14 C63.9707565,14 63.3785278,13.9556325 62.8087465,13.8678123 C62.2389651,13.7804496 61.8162858,13.6926294 61.5416636,13.6048092 L61.1485957,13.4730789 Z M46.0286628,14 C44.4205349,14 43.1027633,13.524041 42.0758136,12.5711907 C41.0483985,11.6188066 40.5351562,10.2473362 40.5351562,8.45771177 L40.5351562,0 L43.9421913,0 L43.9421913,8.45771177 C43.9421913,10.1452451 44.6373716,10.9890117 46.0286628,10.9890117 C47.4706734,10.9890117 48.1979605,10.1452451 48.2109893,8.45771177 L48.2109893,0 L51.6184896,0 L51.6184896,8.45771177 C51.6184896,10.2347496 51.1015248,11.6024907 50.0680607,12.5614012 C49.0341312,13.5203117 47.6875101,14 46.0286628,14 L46.0286628,14 Z M19.5351562,13.4166667 L19.5351562,0 L22.954105,0 L22.954105,5.13418885 L27.1803963,5.13418885 L27.1803963,0 L30.6184896,0 L30.6184896,13.4166667 L27.1803963,13.4166667 L27.1803963,8.15084363 L22.954105,8.15084363 L22.954105,13.4166667 L19.5351562,13.4166667 Z M3.77911354,13.4166667 L3.77911354,3.01665478 L0.28515625,3.01665478 L0.28515625,0 L10.7851562,0 L10.7851562,3.01665478 L7.29167601,3.01665478 L7.29167601,13.4166667 L3.77911354,13.4166667 Z" id="Thuso"></path>
            </g>
        </g>
    </g>
</svg>