<?xml version="1.0" encoding="UTF-8"?>
<svg width="50px" height="50px" viewBox="0 0 50 50" version="1.1" xmlns="http://www.w3.org/2000/svg" xmlns:xlink="http://www.w3.org/1999/xlink">
    <title>19A2FB49-3CE4-4C94-B714-88457F34F4D6@1x</title>
    <g id="Homepage" stroke="none" stroke-width="1" fill="none" fill-rule="evenodd">
        <g id="Thuso-web-home-v2" transform="translate(-860.000000, -5912.000000)" fill="#FFFFFF">
            <g id="footer" transform="translate(0.000000, 5595.000000)">
                <g id="social-links" transform="translate(860.000000, 282.000000)">
                    <g id="linkedin-icon" transform="translate(0.000000, 35.000000)">
                        <rect id="Rectangle-Copy-5" opacity="0.200000003" x="0" y="0" width="50" height="50"></rect>
                        <path d="M12,15.3861004 C12,14.5495328 12.2928012,13.8593784 12.8783784,13.3156371 C13.4639556,12.7718707 14.2252336,12.5 15.1621622,12.5 C16.0823764,12.5 16.82689,12.7676795 17.3957529,13.3030888 C17.9813301,13.8552124 18.2741313,14.5746293 18.2741313,15.46139 C18.2741313,16.2644788 17.9897124,16.9337027 17.4208494,17.469112 C16.8352722,18.0212355 16.0656371,18.2972973 15.1119691,18.2972973 L15.0868726,18.2972973 C14.1666583,18.2972973 13.4221448,18.0212355 12.8532819,17.469112 C12.2844189,16.9169884 12,16.2226429 12,15.3861004 Z M12.3262548,37.3455598 L12.3262548,20.5810811 L17.8976834,20.5810811 L17.8976834,37.3455598 L12.3262548,37.3455598 Z M20.984556,37.3455598 L26.5559846,37.3455598 L26.5559846,27.984556 C26.5559846,27.3989537 26.622917,26.9472162 26.7567568,26.6293436 C26.9909826,26.0604807 27.3465251,25.5794556 27.8233591,25.1862934 C28.3001931,24.7931062 28.8983185,24.5965251 29.6177606,24.5965251 C31.4916429,24.5965251 32.4285714,25.8597085 32.4285714,28.3861004 L32.4285714,37.3455598 L38,37.3455598 L38,27.7335907 C38,25.2573919 37.4144228,23.3793436 36.2432432,22.0994208 C35.0720637,20.8194981 33.5244614,20.1795367 31.6003861,20.1795367 C29.4420849,20.1795367 27.7606178,21.1081081 26.5559846,22.965251 L26.5559846,23.015444 L26.530888,23.015444 L26.5559846,22.965251 L26.5559846,20.5810811 L20.984556,20.5810811 C21.0180097,21.1164653 21.034749,22.7811931 21.034749,25.5752896 C21.034749,28.369361 21.0180097,32.2927761 20.984556,37.3455598 Z" id="Shape" fill-rule="nonzero"></path>
                    </g>
                </g>
            </g>
        </g>
    </g>
</svg>